<?xml version="1.0" encoding="UTF-8" standalone="no" ?>
<!DOCTYPE svg PUBLIC "-//W3C//DTD SVG 1.1//EN" "http://www.w3.org/Graphics/SVG/1.1/DTD/svg11.dtd">
<svg xmlns="http://www.w3.org/2000/svg" xmlns:xlink="http://www.w3.org/1999/xlink" version="1.1" width="256" height="256" viewBox="0 0 256 256" xml:space="preserve">
<desc>Created with Fabric.js 3.6.6</desc>
<defs>
</defs>
<g transform="matrix(1.28 0 0 1.28 128.64 128.64)"  >
<linearGradient id="SVGID_22" gradientUnits="objectBoundingBox" gradientTransform="matrix(1 0 0 1 0 0)"  x1="0" y1="0" x2="0" y2="1">
<stop offset="0%" style="stop-color:rgb(43,28,119);stop-opacity: 1"/>
<stop offset="55.00000000000001%" style="stop-color:rgb(156,105,242);stop-opacity: 1"/>
<stop offset="75%" style="stop-color:rgb(248,146,219);stop-opacity: 1"/>
<stop offset="100%" style="stop-color:rgb(255,215,216);stop-opacity: 1"/>
</linearGradient>
<circle style="stroke: none; stroke-width: 1; stroke-dasharray: none; stroke-linecap: butt; stroke-dashoffset: 0; stroke-linejoin: miter; stroke-miterlimit: 4; fill: url(#SVGID_22); fill-rule: nonzero; opacity: 1;"  cx="0" cy="0" r="100" />
</g>
<g transform="matrix(2.1 0 0 2.1 127.67 126.67)"  >
<g style=""   >
		<g transform="matrix(1 0 0 1 23.22 0.64)" id="SVGRepo_iconCarrier"  >
<path style="stroke: rgb(255,255,255); stroke-width: 1; stroke-dasharray: none; stroke-linecap: butt; stroke-dashoffset: 0; stroke-linejoin: miter; stroke-miterlimit: 4; fill: rgb(255,255,255); fill-rule: nonzero; opacity: 1;"  transform=" translate(-73.22, -50.64)" d="M 93.998 45.312 c 0 -3.676 -1.659 -7.121 -4.486 -9.414 c 0.123 -0.587 0.184 -1.151 0.184 -1.706 c 0 -4.579 -3.386 -8.382 -7.785 -9.037 c 0.101 -0.526 0.149 -1.042 0.149 -1.556 c 0 -4.875 -3.842 -8.858 -8.655 -9.111 c -0.079 -0.013 -0.159 -0.024 -0.242 -0.024 c -0.04 0 -0.079 0.005 -0.12 0.006 c -0.04 -0.001 -0.079 -0.006 -0.12 -0.006 c -0.458 0 -0.919 0.041 -1.406 0.126 c -0.846 -4.485 -4.753 -7.825 -9.437 -7.825 c -5.311 0 -9.632 4.321 -9.632 9.633 v 65.918 c 0 6.723 5.469 12.191 12.191 12.191 c 4.46 0 8.508 -2.413 10.646 -6.246 c 0.479 0.104 0.939 0.168 1.401 0.198 c 2.903 0.185 5.73 -0.766 7.926 -2.693 c 2.196 -1.927 3.51 -4.594 3.7 -7.51 c 0.079 -1.215 -0.057 -2.434 -0.403 -3.638 c 3.796 -2.691 6.027 -6.952 6.027 -11.621 c 0 -3.385 -1.219 -6.635 -3.445 -9.224 C 92.731 51.505 93.998 48.471 93.998 45.312 z M 90.938 62.999 c 0 3.484 -1.582 6.68 -4.295 8.819 c -2.008 -3.196 -5.57 -5.237 -9.427 -5.237 c -0.828 0 -1.5 0.672 -1.5 1.5 s 0.672 1.5 1.5 1.5 c 3.341 0 6.384 2.093 7.582 5.208 c 0.41 1.088 0.592 2.189 0.521 3.274 c -0.138 2.116 -1.091 4.051 -2.685 5.449 c -1.594 1.399 -3.641 2.094 -5.752 1.954 c -0.594 -0.039 -1.208 -0.167 -1.933 -0.402 c -0.74 -0.242 -1.541 0.124 -1.846 0.84 c -1.445 3.404 -4.768 5.604 -8.465 5.604 c -5.068 0 -9.191 -4.123 -9.191 -9.191 V 16.399 c 0 -3.657 2.975 -6.633 6.632 -6.633 c 3.398 0 6.194 2.562 6.558 5.908 c -2.751 1.576 -4.612 4.535 -4.612 7.926 c 0 0.829 0.672 1.5 1.5 1.5 s 1.5 -0.671 1.5 -1.5 c 0 -3.343 2.689 -6.065 6.016 -6.13 c 3.327 0.065 6.016 2.787 6.016 6.129 c 0 0.622 -0.117 1.266 -0.359 1.971 c -0.057 0.166 -0.084 0.34 -0.081 0.515 c 0.001 0.041 0.003 0.079 0.007 0.115 c -0.006 0.021 -0.01 0.035 -0.01 0.035 c -0.118 0.465 -0.006 0.959 0.301 1.328 c 0.307 0.369 0.765 0.569 1.251 0.538 c 0.104 -0.007 0.208 -0.02 0.392 -0.046 c 3.383 0 6.136 2.753 6.136 6.136 c 0 0.572 -0.103 1.159 -0.322 1.849 c -0.203 0.635 0.038 1.328 0.591 1.7 c 2.434 1.639 3.909 4.329 4.014 7.242 c 0 0.004 -0.001 0.008 -0.001 0.012 c 0 5.03 -4.092 9.123 -9.122 9.123 s -9.123 -4.093 -9.123 -9.123 c 0 -0.829 -0.672 -1.5 -1.5 -1.5 s -1.5 0.671 -1.5 1.5 c 0 6.685 5.438 12.123 12.123 12.123 c 2.228 0 4.31 -0.615 6.106 -1.668 C 89.88 57.539 90.938 60.212 90.938 62.999 z" stroke-linecap="round" />
</g>
		<g transform="matrix(1 0 0 1 -22.96 0.64)" id="SVGRepo_iconCarrier"  >
<path style="stroke: rgb(255,255,255); stroke-width: 1; stroke-dasharray: none; stroke-linecap: butt; stroke-dashoffset: 0; stroke-linejoin: miter; stroke-miterlimit: 4; fill: rgb(255,255,255); fill-rule: nonzero; opacity: 1;"  transform=" translate(-27.04, -50.64)" d="M 38.179 6.766 c -4.684 0 -8.59 3.34 -9.435 7.825 c -0.488 -0.085 -0.949 -0.126 -1.407 -0.126 c -0.04 0 -0.079 0.005 -0.12 0.006 c -0.04 -0.001 -0.079 -0.006 -0.12 -0.006 c -0.083 0 -0.163 0.011 -0.242 0.024 c -4.813 0.253 -8.654 4.236 -8.654 9.111 c 0 0.514 0.049 1.03 0.149 1.556 c -4.399 0.655 -7.785 4.458 -7.785 9.037 c 0 0.554 0.061 1.118 0.184 1.706 c -2.827 2.293 -4.486 5.738 -4.486 9.414 c 0 3.159 1.266 6.193 3.505 8.463 c -2.227 2.589 -3.446 5.839 -3.446 9.224 c 0 4.669 2.231 8.929 6.027 11.621 c -0.347 1.204 -0.482 2.423 -0.402 3.639 c 0.19 2.915 1.503 5.582 3.699 7.509 c 2.196 1.928 5.015 2.879 7.926 2.693 c 0.455 -0.03 0.919 -0.096 1.4 -0.199 c 2.138 3.834 6.186 6.247 10.646 6.247 c 6.722 0 12.191 -5.469 12.191 -12.191 V 16.399 C 47.811 11.087 43.49 6.766 38.179 6.766 z M 44.811 82.317 c 0 5.068 -4.123 9.191 -9.191 9.191 c -3.697 0 -7.02 -2.2 -8.464 -5.604 c -0.241 -0.567 -0.793 -0.914 -1.381 -0.914 c -0.154 0 -0.311 0.023 -0.465 0.074 c -0.724 0.235 -1.338 0.363 -1.933 0.402 c -2.119 0.139 -4.158 -0.556 -5.751 -1.954 c -1.594 -1.398 -2.547 -3.333 -2.685 -5.449 c -0.076 -1.16 0.125 -2.336 0.598 -3.495 c 0.007 -0.017 0.005 -0.036 0.011 -0.053 c 1.342 -3.056 4.225 -4.953 7.597 -4.953 c 0.829 0 1.5 -0.672 1.5 -1.5 s -0.671 -1.5 -1.5 -1.5 c -3.938 0 -7.501 2.007 -9.548 5.239 c -2.701 -2.139 -4.277 -5.327 -4.277 -8.802 c 0 -2.787 1.06 -5.46 2.978 -7.549 c 1.796 1.053 3.879 1.668 6.107 1.668 c 6.685 0 12.123 -5.438 12.123 -12.123 c 0 -0.829 -0.671 -1.5 -1.5 -1.5 s -1.5 0.671 -1.5 1.5 c 0 5.03 -4.092 9.123 -9.123 9.123 s -9.123 -4.093 -9.123 -9.123 c 0 -0.002 -0.001 -0.004 -0.001 -0.006 c 0.103 -2.915 1.578 -5.607 4.013 -7.248 c 0.553 -0.372 0.793 -1.064 0.591 -1.699 c -0.22 -0.691 -0.322 -1.278 -0.322 -1.85 c 0 -3.376 2.741 -6.125 6.195 -6.125 c 0.007 0 0.015 0 0.022 0 c 0.103 0.014 0.206 0.027 0.311 0.034 c 0.485 0.03 0.948 -0.171 1.254 -0.542 c 0.307 -0.372 0.417 -0.868 0.294 -1.334 c 0 -0.001 -0.003 -0.014 -0.008 -0.031 c 0.003 -0.035 0.006 -0.067 0.007 -0.095 c 0.005 -0.18 -0.022 -0.359 -0.081 -0.529 c -0.242 -0.707 -0.359 -1.352 -0.359 -1.972 c 0 -3.342 2.688 -6.065 6.016 -6.129 c 3.328 0.065 6.016 2.787 6.016 6.13 c 0 0.829 0.671 1.5 1.5 1.5 s 1.5 -0.671 1.5 -1.5 c 0 -3.391 -1.861 -6.35 -4.612 -7.926 c 0.364 -3.346 3.16 -5.908 6.558 -5.908 c 3.657 0 6.632 2.976 6.632 6.633 V 82.317 z" stroke-linecap="round" />
</g>
</g>
</g>
</svg>